<svg xmlns="http://www.w3.org/2000/svg" xmlns:xlink="http://www.w3.org/1999/xlink" width="265" zoomAndPan="magnify" viewBox="0 0 198.75 205.499994" height="274" preserveAspectRatio="xMidYMid meet" version="1.0"><defs><clipPath id="c93c3d1e82"><path d="M 0.535156 0.3125 L 198.300781 0.3125 L 198.300781 204.820312 L 0.535156 204.820312 Z M 0.535156 0.3125 " clip-rule="nonzero"/></clipPath><clipPath id="209ba2f0d7"><path d="M 17 45 L 173 45 L 173 204.820312 L 17 204.820312 Z M 17 45 " clip-rule="nonzero"/></clipPath><clipPath id="c720a974ec"><path d="M 63.253906 35.957031 L 158.382812 35.957031 L 158.382812 169.300781 L 63.253906 169.300781 Z M 63.253906 35.957031 " clip-rule="nonzero"/></clipPath></defs><g clip-path="url(#c93c3d1e82)"><path fill="#005f9f" d="M 198.300781 56.546875 C 180.164062 29.476562 149.300781 11.65625 114.277344 11.65625 C 58.449219 11.65625 13.191406 56.933594 13.191406 112.789062 C 13.191406 153.660156 37.425781 188.867188 72.296875 204.8125 C 30.605469 190.949219 0.535156 151.605469 0.535156 105.234375 C 0.535156 47.292969 47.480469 0.320312 105.394531 0.320312 C 145.742188 0.320312 180.769531 23.121094 198.300781 56.546875 Z M 198.300781 56.546875 " fill-opacity="1" fill-rule="nonzero"/></g><g clip-path="url(#209ba2f0d7)"><path fill="#3facda" d="M 172.0625 174.253906 C 155.910156 192.554688 132.28125 204.097656 105.960938 204.097656 C 57.277344 204.097656 17.808594 164.609375 17.808594 115.898438 C 17.808594 87.257812 31.457031 61.804688 52.597656 45.695312 C 38.871094 61.246094 30.542969 81.675781 30.542969 104.046875 C 30.542969 152.757812 70.007812 192.246094 118.695312 192.246094 C 138.753906 192.246094 157.25 185.542969 172.0625 174.253906 Z M 172.0625 174.253906 " fill-opacity="1" fill-rule="nonzero"/></g><g clip-path="url(#c720a974ec)"><path fill="#0a77bc" d="M 110.820312 169.308594 C 110.820312 169.308594 63.253906 109.660156 63.253906 83.4375 C 63.253906 57.214844 84.550781 35.957031 110.820312 35.957031 C 137.089844 35.957031 158.382812 57.214844 158.382812 83.4375 C 158.382812 109.660156 110.820312 169.308594 110.820312 169.308594 " fill-opacity="1" fill-rule="nonzero"/></g><path fill="#ffffff" d="M 110.820312 46.828125 C 90.566406 46.828125 74.144531 63.21875 74.144531 83.4375 C 74.144531 103.65625 90.566406 120.046875 110.820312 120.046875 C 131.074219 120.046875 147.492188 103.65625 147.492188 83.4375 C 147.492188 63.21875 131.074219 46.828125 110.820312 46.828125 " fill-opacity="1" fill-rule="nonzero"/><path fill="#0a77bc" d="M 123.972656 78.457031 C 123.363281 79.71875 122.503906 80.691406 121.394531 81.378906 C 120.285156 82.066406 119 82.410156 117.535156 82.410156 L 105.355469 82.410156 L 105.355469 65.734375 L 117.535156 65.734375 C 119 65.734375 120.285156 66.082031 121.394531 66.777344 C 122.503906 67.476562 123.363281 68.457031 123.972656 69.71875 C 124.582031 70.980469 124.890625 72.441406 124.890625 74.105469 C 124.890625 75.742188 124.582031 77.191406 123.972656 78.457031 Z M 130.03125 66.332031 C 128.820312 64.09375 127.117188 62.363281 124.921875 61.132812 C 122.726562 59.902344 120.183594 59.289062 117.300781 59.289062 L 98.566406 59.289062 L 98.566406 107.589844 L 105.355469 107.589844 L 105.355469 88.851562 L 117.300781 88.851562 C 120.183594 88.851562 122.726562 88.246094 124.921875 87.027344 C 127.117188 85.808594 128.820312 84.085938 130.03125 81.859375 C 131.238281 79.636719 131.84375 77.050781 131.84375 74.105469 C 131.84375 71.160156 131.238281 68.566406 130.03125 66.332031 " fill-opacity="1" fill-rule="nonzero"/></svg>